<svg width="191" height="50" viewBox="0 0 191 50" fill="none" xmlns="http://www.w3.org/2000/svg">
<path d="M88.1768 0.224502C98.4234 0.262 112.401 -2.21307 118.311 8.41222C120.451 12.4811 120.034 17.2063 120.255 21.6502C120.388 25.6065 120.476 29.5629 120.217 33.5068C118.418 48.201 110.791 50.1323 97.3691 49.9823C91.7754 50.1198 86.1502 49.4573 80.7523 48.0134C74.7293 46.8072 71.0612 41.157 70.7771 35.3318C70.3478 25.8753 69.2935 13.5437 74.3252 5.17465C77.4693 0.843268 83.2903 0.730768 88.1768 0.224502ZM113.058 23.8314C113.885 8.69978 99.1494 11.8061 88.7008 12.0248C79.3192 12.2749 79.6853 20.0813 79.9505 27.1941C79.3128 36.7944 86.7879 36.6819 94.2439 36.5694C104.396 36.6194 114.201 37.3131 113.058 23.8314Z" fill="#262E2B"/>
<mask id="mask0_22_115" style="mask-type:alpha" maskUnits="userSpaceOnUse" x="79" y="11" width="35" height="26">
<path d="M94.0042 20.5751C92.167 20.0688 92.59 23.3814 92.489 24.4877C92.7667 25.3439 92.1796 29.5066 93.6506 28.8378C95.9102 27.8058 97.8158 26.3067 99.7837 24.7927C100.219 24.4578 100.167 23.7836 99.696 23.5001C97.8347 22.3798 96.1351 21.0998 94.0042 20.5751ZM88.7009 12.0248C99.1432 11.8061 113.885 8.69971 113.052 23.8314C114.194 37.3131 104.396 36.613 94.2441 36.5693C86.7879 36.6818 79.3066 36.7881 79.9505 27.194C79.6854 20.0813 79.3255 12.2748 88.7009 12.0248Z" fill="white"/>
</mask>
<g mask="url(#mask0_22_115)">
</g>
<path d="M92.4887 24.4878C92.5897 23.3816 92.1668 20.0627 94.0039 20.5752C96.135 21.1 97.8302 22.3801 99.694 23.5004C100.166 23.7838 100.218 24.4587 99.7823 24.7938C97.8149 26.3074 95.9095 27.8061 93.6504 28.838C92.1794 29.5068 92.7665 25.3441 92.4887 24.4878Z" fill="#262E2B"/>
<path d="M190.226 28.1908C190.073 22.9714 189.825 17.7519 189.455 12.5262C187.894 0.455874 179.247 -0.725534 168.695 0.280851C164.852 0.462126 160.959 0.068326 157.085 0.41212C153.714 0.580891 150.126 0.737162 147.163 2.51867C143.952 4.36265 142.276 7.75684 141.626 11.2386C141.039 14.1577 140.542 17.0706 140.511 20.0585C140.256 23.9528 140.396 27.8533 140.74 31.7476C141.02 35.1418 141.352 38.561 142.639 41.7551C144.009 45.0056 146.73 47.0121 149.884 48.2373C152.516 49.2624 155.447 49.7375 158.161 49.9375C158.869 50.2125 158.646 49.3312 158.703 48.9186C158.971 44.5305 159.2 40.1487 159.359 35.7543C159.328 35.7543 159.302 35.7543 159.27 35.7543C159.105 34.773 159.665 31.3787 158.888 30.9975C157.416 30.9537 154.478 31.635 154.364 29.5285C154.606 27.5845 153.287 22.0087 156.288 22.015C156.906 21.8775 158.939 22.1525 159.13 21.6087C159.385 19.0959 159.582 16.5456 160.78 14.2577C162.17 11.1135 165.713 9.83215 169.001 9.78214C170.759 9.94462 175.921 9.30079 175.672 11.9511C175.335 13.6201 175.985 18.4583 173.761 18.6771C171.569 18.9208 168.293 19.2959 169.421 22.2775C169.561 23.1651 173.665 22.5776 174.653 22.8339C177.157 22.9776 175.832 26.0218 175.8 27.5782C175.475 28.6284 175.615 30.4662 174.2 30.6786C173.257 30.8849 168.797 30.6286 168.631 31.3225C168.459 37.4483 168.332 43.5742 168.198 49.6999C168.242 50.2813 169.402 49.7625 169.829 49.8437C170.422 49.7937 171.008 49.8937 171.613 49.7437C174.028 49.5312 176.545 49.4749 178.935 49.1186C182.51 48.5811 185.791 47.3621 187.958 43.8992C190.813 39.2173 190.462 33.4415 190.226 28.1908Z" fill="#262E2B"/>
<mask id="mask1_22_115" style="mask-type:alpha" maskUnits="userSpaceOnUse" x="154" y="9" width="23" height="41">
<path d="M169.836 49.8313C169.409 49.7562 168.249 50.2688 168.204 49.6874C168.344 43.5617 168.466 37.4358 168.638 31.31C168.803 30.6099 173.264 30.8662 174.207 30.6662C175.615 30.4537 175.481 28.6159 175.806 27.5657C175.838 26.003 177.164 22.9651 174.659 22.8214C173.672 22.5651 169.568 23.1526 169.428 22.265C168.3 19.2834 171.575 18.9083 173.767 18.6646C175.991 18.4458 175.335 13.6076 175.679 11.9387C175.927 9.2883 170.766 9.93839 169.007 9.76965C165.719 9.81966 162.176 11.1011 160.787 14.2452C159.583 16.5331 159.392 19.0834 159.137 21.5962C158.945 22.1338 156.913 21.8587 156.295 22.0025C153.3 21.9963 154.612 27.572 154.37 29.516C154.485 31.6225 157.429 30.9412 158.894 30.985C159.672 31.3662 159.111 34.7667 159.277 35.7419C159.309 35.7419 159.334 35.7419 159.366 35.7419C159.2 40.1299 158.977 44.518 158.71 48.9061C158.646 49.3124 158.875 50.2 158.168 49.925C155.454 49.725 161.278 49.1874 158.646 48.1623V49.9375L168.287 50V49.0999C165.898 49.4562 174.035 49.5124 171.62 49.725C171.014 49.8813 170.422 49.7813 169.836 49.8313Z" fill="white"/>
</mask>
<g mask="url(#mask1_22_115)">
</g>
<path d="M32.5388 15.411C34.9973 15.2922 35.3755 19.2862 32.6774 18.9362C30.4395 18.8737 30.1558 15.4735 32.5388 15.411Z" fill="#262E2B"/>
<path d="M40.5953 24.9239C40.7907 10.6294 35.0162 8.77935 21.8471 9.57314C12.7756 8.87936 9.21375 15.6922 9.18856 23.7489C8.69686 31.6368 11.1491 41.606 21.0528 40.7685C33.415 40.5497 41.169 39.3059 40.5953 24.9239ZM18.9787 0.322692C33.1376 -0.983623 49.5281 1.02898 49.7235 18.5986C50.2215 26.6865 50.4863 35.3557 46.4895 42.6936C42.2343 49.8689 35.1423 49.5689 27.7666 49.7377C21.2797 49.9939 14.5911 50.5502 8.33753 48.4439C1.96413 46.2563 0.230511 41.4873 0.369203 35.2494C0.148564 29.8804 -0.0720821 24.5239 0.0224831 19.1486C0.337681 6.41047 5.94828 0.0289292 18.9787 0.322692Z" fill="#262E2B"/>
<path d="M25.9701 19.5674C19.5526 19.2424 17.5731 29.7242 24.6147 30.0055C31.234 29.8492 32.2489 21.4363 25.9701 19.5674ZM24.6273 17.161C35.7098 16.4172 35.029 32.6556 24.5769 32.5431C14.6733 32.243 15.6 18.0361 24.6273 17.161Z" fill="#262E2B"/>
</svg>
